<svg width="32" height="32" viewBox="0 0 32 32" fill="none" xmlns="http://www.w3.org/2000/svg">
  <path d="M27.5827 4.22559L17.5391 11.0757L19.2973 7.08386L27.5827 4.22559Z" fill="#E17726" stroke="#E17726" stroke-width="0.25" stroke-linecap="round" stroke-linejoin="round"/>
  <path d="M4.41797 4.22559L14.3684 11.1475L12.7033 7.08386L4.41797 4.22559Z" fill="#E27625" stroke="#E27625" stroke-width="0.25" stroke-linecap="round" stroke-linejoin="round"/>
  <path d="M24.0471 21.9131L21.3926 26.0375L27.0758 27.6239L28.6622 22.0207L24.0471 21.9131Z" fill="#E27625" stroke="#E27625" stroke-width="0.25" stroke-linecap="round" stroke-linejoin="round"/>
  <path d="M3.35156 22.0207L4.92414 27.6239L10.6073 26.0375L7.95281 21.9131L3.35156 22.0207Z" fill="#E27625" stroke="#E27625" stroke-width="0.25" stroke-linecap="round" stroke-linejoin="round"/>
  <path d="M10.2842 14.8101L8.79785 17.1726L14.4093 17.4595L14.2301 11.4346L10.2842 14.8101Z" fill="#E27625" stroke="#E27625" stroke-width="0.25" stroke-linecap="round" stroke-linejoin="round"/>
  <path d="M21.7158 14.8099L17.6981 11.3625L17.5908 17.4594L23.2022 17.1725L21.7158 14.8099Z" fill="#E27625" stroke="#E27625" stroke-width="0.25" stroke-linecap="round" stroke-linejoin="round"/>
  <path d="M10.6074 26.0374L14.0547 24.3434L11.0947 22.0527L10.6074 26.0374Z" fill="#E27625" stroke="#E27625" stroke-width="0.25" stroke-linecap="round" stroke-linejoin="round"/>
  <path d="M17.9453 24.3434L21.3926 26.0374L20.9053 22.0527L17.9453 24.3434Z" fill="#E27625" stroke="#E27625" stroke-width="0.25" stroke-linecap="round" stroke-linejoin="round"/>
  <path d="M21.3926 26.0374L17.9453 24.3434L18.2322 26.5964L18.1963 27.5532L21.3926 26.0374Z" fill="#D5BFB2" stroke="#D5BFB2" stroke-width="0.25" stroke-linecap="round" stroke-linejoin="round"/>
  <path d="M10.6074 26.0374L13.8037 27.5532L13.7857 26.5964L14.0547 24.3434L10.6074 26.0374Z" fill="#D5BFB2" stroke="#D5BFB2" stroke-width="0.25" stroke-linecap="round" stroke-linejoin="round"/>
  <path d="M13.8754 20.4331L11.0234 19.5481L13.0447 18.5913L13.8754 20.4331Z" fill="#233447" stroke="#233447" stroke-width="0.25" stroke-linecap="round" stroke-linejoin="round"/>
  <path d="M18.125 20.4331L18.9557 18.5913L20.9949 19.5481L18.125 20.4331Z" fill="#233447" stroke="#233447" stroke-width="0.25" stroke-linecap="round" stroke-linejoin="round"/>
  <path d="M10.6073 26.0375L11.1126 21.9131L7.95312 22.0207L10.6073 26.0375Z" fill="#CC6228" stroke="#CC6228" stroke-width="0.25" stroke-linecap="round" stroke-linejoin="round"/>
  <path d="M20.8867 21.9131L21.392 26.0375L24.0462 22.0207L20.8867 21.9131Z" fill="#CC6228" stroke="#CC6228" stroke-width="0.25" stroke-linecap="round" stroke-linejoin="round"/>
  <path d="M23.2022 17.1724L17.5908 17.4593L18.1241 20.433L18.9548 18.5912L20.994 19.548L23.2022 17.1724Z" fill="#CC6228" stroke="#CC6228" stroke-width="0.25" stroke-linecap="round" stroke-linejoin="round"/>
  <path d="M11.0235 19.548L13.0447 18.5912L13.8754 20.433L14.4087 17.4593L8.79785 17.1724L11.0235 19.548Z" fill="#CC6228" stroke="#CC6228" stroke-width="0.25" stroke-linecap="round" stroke-linejoin="round"/>
  <path d="M8.79785 17.1724L11.0947 22.0527L11.0235 19.548L8.79785 17.1724Z" fill="#E27525" stroke="#E27525" stroke-width="0.25" stroke-linecap="round" stroke-linejoin="round"/>
  <path d="M20.9941 19.548L20.9053 22.0527L23.2022 17.1724L20.9941 19.548Z" fill="#E27525" stroke="#E27525" stroke-width="0.25" stroke-linecap="round" stroke-linejoin="round"/>
  <path d="M14.4087 17.4595L13.8754 20.4332L14.5525 24.0925L14.6777 19.4405L14.4087 17.4595Z" fill="#E27525" stroke="#E27525" stroke-width="0.25" stroke-linecap="round" stroke-linejoin="round"/>
  <path d="M17.5908 17.4595L17.3398 19.4226L17.4471 24.0925L18.1242 20.4332L17.5908 17.4595Z" fill="#E27525" stroke="#E27525" stroke-width="0.25" stroke-linecap="round" stroke-linejoin="round"/>
  <path d="M18.1241 20.4331L17.4471 24.0924L17.9453 24.3434L20.9053 22.0527L20.994 19.5481L18.1241 20.4331Z" fill="#F5841F" stroke="#F5841F" stroke-width="0.25" stroke-linecap="round" stroke-linejoin="round"/>
  <path d="M11.0234 19.5481L11.0947 22.0527L14.0547 24.3434L14.5529 24.0924L13.8759 20.4331L11.0234 19.5481Z" fill="#F5841F" stroke="#F5841F" stroke-width="0.25" stroke-linecap="round" stroke-linejoin="round"/>
  <path d="M18.1963 27.5532L18.2322 26.5964L17.9633 26.3633H14.0367L13.7857 26.5964L13.8037 27.5532L10.6074 26.0374L11.7068 26.9582L13.9828 28.5446H18.0172L20.2932 26.9582L21.3926 26.0374L18.1963 27.5532Z" fill="#C0AC9D" stroke="#C0AC9D" stroke-width="0.25" stroke-linecap="round" stroke-linejoin="round"/>
  <path d="M17.9453 24.3434L17.4471 24.0924H14.5525L14.0547 24.3434L13.7857 26.5964L14.0367 26.3633H17.9633L18.2322 26.5964L17.9453 24.3434Z" fill="#161616" stroke="#161616" stroke-width="0.25" stroke-linecap="round" stroke-linejoin="round"/>
  <path d="M27.9447 11.7169L28.7754 7.87161L27.5827 4.22559L17.9453 10.8965L21.7158 14.81L26.9916 16.3964L28.1447 15.0605L27.6465 14.7018L28.4592 13.9707L27.8542 13.5043L28.6669 12.8988L27.9447 11.7169Z" fill="#763E1A" stroke="#763E1A" stroke-width="0.25" stroke-linecap="round" stroke-linejoin="round"/>
  <path d="M3.22461 7.87161L4.07314 11.7169L3.33301 12.8988L4.14574 13.5043L3.54076 13.9707L4.35349 14.7018L3.85533 15.0605L5.00842 16.3964L10.2842 14.81L14.0547 10.8965L4.41729 4.22559L3.22461 7.87161Z" fill="#763E1A" stroke="#763E1A" stroke-width="0.25" stroke-linecap="round" stroke-linejoin="round"/>
  <path d="M26.9916 16.3964L21.7158 14.81L23.2022 17.1725L20.9053 22.0528L24.0469 22.0207H28.6622L26.9916 16.3964Z" fill="#F5841F" stroke="#F5841F" stroke-width="0.25" stroke-linecap="round" stroke-linejoin="round"/>
  <path d="M10.2842 14.81L5.00842 16.3964L3.35156 22.0207H7.95281L11.0944 22.0528L8.79754 17.1725L10.2842 14.81Z" fill="#F5841F" stroke="#F5841F" stroke-width="0.25" stroke-linecap="round" stroke-linejoin="round"/>
  <path d="M17.5908 17.4594L17.9453 10.8965L19.2973 7.08386H12.7031L14.0547 10.8965L14.4092 17.4594L14.5345 19.4583L14.5525 24.0924H17.4471L17.4651 19.4583L17.5908 17.4594Z" fill="#F5841F" stroke="#F5841F" stroke-width="0.25" stroke-linecap="round" stroke-linejoin="round"/>
</svg> 