<?xml version="1.0" encoding="UTF-8"?>
<svg width="32" height="32" viewBox="0 0 32 32" fill="none" xmlns="http://www.w3.org/2000/svg">
  <circle cx="16" cy="16" r="16" fill="#2775CA"/>
  <path d="M16 4C9.37 4 4 9.37 4 16C4 22.63 9.37 28 16 28C22.63 28 28 22.63 28 16C28 9.37 22.63 4 16 4ZM17.5 21.5V23H14.5V21.5C12.5 21.2 11 20.1 10.8 18H12.8C13 19.1 14.1 19.8 16 19.8C18.1 19.8 19 19 19 18C19 16.9 18.2 16.4 15.9 16L14.5 15.8C11.8 15.4 10.5 14.2 10.5 12C10.5 10 12 8.8 14.5 8.5V7H17.5V8.5C19.5 8.8 20.8 10 21 12H19C18.8 10.9 17.8 10.2 16 10.2C14.2 10.2 13.2 10.9 13.2 12C13.2 13 14 13.5 16.2 13.9L17.6 14.1C20.4 14.5 21.7 15.7 21.7 18C21.7 20.1 20.1 21.2 17.5 21.5Z" fill="white"/>
</svg> 